<?xml version="1.0" standalone="no"?>
<!DOCTYPE svg PUBLIC "-//W3C//DTD SVG 20010904//EN"
 "http://www.w3.org/TR/2001/REC-SVG-20010904/DTD/svg10.dtd">
<svg version="1.0" xmlns="http://www.w3.org/2000/svg"
 width="814.000000pt" height="814.000000pt" viewBox="0 0 814.000000 814.000000"
 preserveAspectRatio="xMidYMid meet">
<metadata>
Created by potrace 1.11, written by Peter Selinger 2001-2013
</metadata>
<g transform="translate(0.000000,814.000000) scale(0.100000,-0.100000)"
fill="#000000" stroke="none">
<path d="M3937 7564 c-2 -2 -24 -7 -48 -10 -57 -7 -204 -56 -271 -90 -84 -42
-178 -108 -244 -171 -97 -93 -142 -155 -227 -310 -22 -40 -66 -173 -73 -221
-3 -21 -7 -44 -10 -52 -10 -26 -13 -233 -4 -285 18 -107 21 -122 42 -185 119
-372 465 -657 843 -697 329 -34 614 65 841 291 199 199 298 436 298 716 0 139
-14 228 -55 340 -128 355 -446 617 -810 669 -61 9 -275 12 -282 5z"/>
<path d="M1137 5210 c-129 -41 -217 -130 -262 -265 -46 -140 5 -319 118 -414
26 -22 395 -285 587 -419 36 -25 75 -53 86 -61 12 -9 30 -22 40 -29 11 -6 98
-68 194 -137 96 -68 225 -159 285 -202 135 -95 179 -139 219 -223 29 -60 31
-73 30 -165 l-1 -100 -257 -765 c-240 -714 -256 -769 -255 -830 5 -164 91
-295 239 -363 57 -27 76 -31 160 -31 84 -1 101 2 153 27 32 16 350 234 705
486 356 252 666 470 688 484 63 39 156 60 237 54 82 -7 160 -41 262 -115 39
-28 101 -72 138 -99 38 -26 90 -64 117 -83 27 -19 97 -69 156 -110 59 -41 151
-106 205 -145 96 -69 298 -212 409 -290 32 -22 100 -70 151 -106 100 -70 185
-105 259 -108 239 -7 437 196 416 429 -4 48 -71 261 -252 800 -135 404 -251
762 -258 794 -23 110 16 251 95 338 19 21 125 102 236 180 249 176 595 421
766 542 263 186 359 257 383 284 32 36 82 138 89 182 36 212 -88 413 -287 466
-45 12 -491 14 -2923 13 -2768 0 -2872 -1 -2928 -19z"/>
</g>
</svg>
